<?xml version="1.0" encoding="UTF-8"?>
<svg id="Camada_1" data-name="Camada 1" xmlns="http://www.w3.org/2000/svg" viewBox="0 0 319.83 240.53">
  <defs>
    <style>
      .cls-1 {
        fill: #3c5ca3;
      }

      .cls-2 {
        fill: #eee339;
      }
    </style>
  </defs>
  <path class="cls-1" d="M319.83,187.02c-.33,.23-.36,.63-.53,.96-2.83,5.58-7.4,8.53-13.6,9.06-.34,.03-.64-.07-.94-.19-9.75-3.9-19.77-6.93-30.06-9.07-6.77-1.41-13.6-2.44-20.49-3.06-4.73-.42-9.46-.65-14.21-.7-8.96-.09-17.89,.36-26.73,1.91-8.84,1.55-17.5,3.86-26.06,6.54-6.59,2.06-13.1,4.35-19.54,6.84-.34,.13-.73,.4-1.01-.05-.25-.41,.05-.68,.34-.96,7.91-7.48,16.96-13.21,27-17.36,8.5-3.51,17.29-5.97,26.4-7.29,5.64-.82,11.3-1.3,17-1.49,6.87-.23,13.71,.05,20.55,.66,20.08,1.77,39.52,6.47,58.57,12.9,1.1,.37,2.19,.76,3.29,1.14v.16Z"/>
  <path class="cls-2" d="M280.85,0c.17,.27,.08,.57,.08,.85,0,5.83-.01,11.67,.02,17.5,0,.76-.21,1.22-.81,1.68-8.86,6.77-17.01,14.31-24.65,22.42-12.88,13.66-23.91,28.68-32.73,45.28-7.04,13.24-12.38,27.14-15.87,41.73-1.7,7.12-2.94,14.32-3.69,21.6-.48,4.61-.77,9.23-.99,13.86-.2,4.06-.22,8.13-.03,12.19,.02,.45-.17,.55-.52,.66-2.11,.69-4.21,1.42-6.26,2.28-.6,.25-.75,.1-.78-.5-.15-2.62-.28-5.25-.37-7.88-.17-4.85-.24-9.7-.07-14.56,.35-9.87,1.56-19.65,3.6-29.31,3.51-16.64,9.33-32.45,17.05-47.58,6.76-13.25,14.82-25.67,23.94-37.41,7.47-9.61,15.56-18.65,24.26-27.16,5.51-5.39,11.22-10.55,17.25-15.35,.16-.13,.28-.34,.55-.31Z"/>
  <path class="cls-1" d="M157.57,202.58c-4.71-1.86-9.45-3.64-14.27-5.19-10.03-3.22-20.25-5.61-30.67-7.13-8.65-1.26-17.34-1.92-26.09-1.97-9.45-.06-18.85,.59-28.2,1.94-13.32,1.93-26.28,5.27-38.89,9.94-.98,.36-1.87,.05-2.78-.13-6.11-1.22-11.5-3.92-16.23-7.97-.08-.07-.19-.11-.44-.25,2.23-.82,4.25-1.59,6.28-2.32,12.82-4.58,25.87-8.36,39.22-11.04,8.32-1.67,16.71-2.88,25.18-3.52,6.17-.46,12.35-.62,18.53-.38,13.37,.53,26.38,2.83,38.82,7.91,11.11,4.54,20.91,11.05,29.34,19.6,.11,.11,.21,.25,.31,.37-.04,.04-.08,.08-.11,.13Z"/>
  <path class="cls-2" d="M42.05,38.34c2.75,.99,5.5,1.96,8.24,2.98,10.8,4.02,21.34,8.64,31.61,13.86,19.6,9.96,37.94,21.87,54.99,35.76,4.54,3.7,8.98,7.52,13.31,11.47,.23,.21,.4,.41,.4,.75-.01,5.05-.01,10.09-.02,15.14,0,.04-.05,.09-.14,.25-33.82-29.88-69.98-56.55-108.5-80.02,.04-.06,.08-.12,.12-.17Z"/>
  <path class="cls-1" d="M58.27,212.42c70.66-10.01,140.91-9.02,211.21,3.67-1.01,.56-1.88,.94-2.62,1.49-1.69,1.27-3.48,1.32-5.5,1.01-6.11-.93-12.26-1.6-18.4-2.28-6.36-.71-12.73-1.34-19.1-1.88-5.32-.45-10.65-.83-15.98-1.21-6.71-.48-13.42-.82-20.14-1.1-7.04-.29-14.09-.47-21.14-.6-8-.14-16.01-.16-24.01-.03-7.53,.12-15.07,.34-22.6,.65-9.42,.39-18.84,.97-28.25,1.7-8.46,.66-16.91,1.39-25.34,2.39-1.93,.23-3.43-.04-4.86-1.35-.95-.87-2.07-1.56-3.29-2.46Z"/>
  <path class="cls-2" d="M208.21,53.04c-.02,10.09-1.69,17.32-5.37,24.04-1.86,3.39-4.2,6.41-7.05,9.04-3.28,3.03-7.08,5.23-11.38,6.41-2.33,.64-4.75,1.04-7.19,.87-5.18-.35-9.85-2.1-14.05-5.15-3.68-2.67-6.55-6.08-8.88-9.93-2.08-3.43-3.58-7.14-4.6-11.04-.58-2.23-1-4.48-1.28-6.75-.26-2.06-.19-4.15-.18-6.23,.02-4.8,.91-9.44,2.44-13.96,1.34-3.98,3.25-7.68,5.79-11.02,1.59-2.09,3.4-3.98,5.45-5.66,3.54-2.92,7.51-4.9,12.03-5.7,2.8-.49,5.61-.47,8.44,.04,5.16,.93,9.55,3.29,13.39,6.78,4.58,4.17,7.68,9.28,9.78,15.05,1.84,5.05,2.7,10.28,2.68,13.2Zm-54.84,2.9c.06,1.04,.03,2.58,.19,4.12,.31,2.95,.9,5.84,1.88,8.64,1.89,5.41,4.67,10.26,9.07,14.07,4.58,3.96,9.78,5.98,15.9,5.29,2.72-.31,5.26-1.18,7.61-2.53,5.06-2.92,8.66-7.21,11.13-12.43,4.44-9.38,5.11-19.12,2.36-29.07-1.8-6.53-5.07-12.19-10.38-16.54-7.44-6.11-17.22-6.37-24.96-.66-4.49,3.31-7.6,7.69-9.75,12.78-2.13,5.06-3.15,10.35-3.05,16.34Z"/>
  <path class="cls-2" d="M200.88,213.06c2.24,.13,4.45,.28,6.66,.39,.57,.03,.61,.45,.71,.83,1.03,3.95,2.23,7.86,3.54,11.73,1.21,3.56,2.51,7.09,3.95,10.57,.19,.45,.16,.71-.23,1.03-1.04,.87-2.03,1.79-3.04,2.69-.23,.2-.42,.42-.65-.06-4.15-8.79-8.12-17.65-10.96-26.97,0-.02,0-.05,.02-.2Z"/>
  <path class="cls-2" d="M195.86,190.62c-.11-.32,.09-.44,.44-.53,1.97-.5,3.93-1.01,5.89-1.54,.41-.11,.51,.03,.55,.42,.65,6.01,1.61,11.97,2.92,17.87,.1,.45,.12,.66-.51,.6-1.8-.19-3.6-.29-5.4-.4-.4-.03-.7-.05-.82-.55-1.32-5.2-2.27-10.48-3.08-15.85Z"/>
  <path class="cls-1" d="M157.68,202.45c.07,.03,.16,.06,.09,.15-.02,.03-.13-.01-.2-.02,.04-.04,.08-.08,.11-.13Z"/>
</svg>